<svg width="170" height="170" viewBox="0 0 170 170" fill="none" xmlns="http://www.w3.org/2000/svg">
<circle cx="85" cy="85" r="84.5" stroke="#B6B4B4"/>
<path d="M90.625 81.25C91.7375 81.25 92.8251 80.9201 93.7501 80.302C94.6751 79.6839 95.3961 78.8054 95.8218 77.7776C96.2476 76.7498 96.359 75.6188 96.1419 74.5276C95.9249 73.4365 95.3891 72.4342 94.6025 71.6475C93.8158 70.8609 92.8135 70.3251 91.7224 70.1081C90.6312 69.891 89.5002 70.0024 88.4724 70.4282C87.4446 70.8539 86.5661 71.5749 85.948 72.4999C85.3299 73.4249 85 74.5125 85 75.625C85 77.1168 85.5926 78.5476 86.6475 79.6025C87.7024 80.6574 89.1332 81.25 90.625 81.25ZM90.625 73.75C90.9958 73.75 91.3584 73.86 91.6667 74.066C91.975 74.272 92.2154 74.5649 92.3573 74.9075C92.4992 75.2501 92.5363 75.6271 92.464 75.9908C92.3916 76.3545 92.213 76.6886 91.9508 76.9508C91.6886 77.2131 91.3545 77.3916 90.9908 77.464C90.6271 77.5363 90.2501 77.4992 89.9075 77.3573C89.5649 77.2154 89.272 76.975 89.066 76.6667C88.86 76.3584 88.75 75.9958 88.75 75.625C88.75 75.1277 88.9475 74.6508 89.2992 74.2992C89.6508 73.9475 90.1277 73.75 90.625 73.75Z" fill="black"/>
<path d="M103.75 62.5H66.25C65.2554 62.5 64.3016 62.8951 63.5983 63.5983C62.8951 64.3016 62.5 65.2554 62.5 66.25V103.75C62.5 104.745 62.8951 105.698 63.5983 106.402C64.3016 107.105 65.2554 107.5 66.25 107.5H103.75C104.745 107.5 105.698 107.105 106.402 106.402C107.105 105.698 107.5 104.745 107.5 103.75V66.25C107.5 65.2554 107.105 64.3016 106.402 63.5983C105.698 62.8951 104.745 62.5 103.75 62.5ZM103.75 103.75H66.25V92.5L75.625 83.125L86.1063 93.6063C86.8089 94.3047 87.7593 94.6967 88.75 94.6967C89.7407 94.6967 90.6911 94.3047 91.3937 93.6063L94.375 90.625L103.75 100V103.75ZM103.75 94.6937L97.0187 87.9625C96.3161 87.2641 95.3657 86.872 94.375 86.872C93.3843 86.872 92.4339 87.2641 91.7313 87.9625L88.75 90.9438L78.2687 80.4625C77.5661 79.7641 76.6157 79.372 75.625 79.372C74.6343 79.372 73.6839 79.7641 72.9813 80.4625L66.25 87.1938V66.25H103.75V94.6937Z" fill="black"/>
</svg>
