<svg width="166" height="50" viewBox="0 0 166 50" fill="none" xmlns="http://www.w3.org/2000/svg">
<path d="M67.532 38.88C66.3854 38.88 65.3054 38.68 64.292 38.28C63.2787 37.88 62.452 37.32 61.812 36.6V43.56H54.932V16.56H61.812V18.52C62.372 17.88 63.1587 17.3467 64.172 16.92C65.212 16.4933 66.3987 16.2533 67.732 16.2C69.172 16.1733 70.5054 16.4133 71.732 16.92C72.9854 17.4 74.0787 18.12 75.012 19.08C75.9187 20.0667 76.6254 21.2933 77.132 22.76C77.6654 24.2 77.9454 25.8533 77.972 27.72C77.9987 29.6667 77.7454 31.3467 77.212 32.76C76.6787 34.1733 75.9454 35.3333 75.012 36.24C74.052 37.1467 72.932 37.8133 71.652 38.24C70.372 38.6667 68.9987 38.88 67.532 38.88ZM66.372 32.76C66.9587 32.8133 67.5454 32.76 68.132 32.6C68.7187 32.4133 69.2387 32.12 69.692 31.72C70.172 31.32 70.5454 30.7733 70.812 30.08C71.1054 29.3867 71.252 28.5333 71.252 27.52C71.252 26.6133 71.1054 25.84 70.812 25.2C70.5454 24.5333 70.1987 23.9867 69.772 23.56C69.3454 23.1333 68.852 22.8267 68.292 22.64C67.7587 22.4267 67.2254 22.32 66.692 22.32C65.332 22.32 64.212 22.8533 63.332 23.92C62.4787 24.9867 62.052 26.4 62.052 28.16C62.052 29.3333 62.452 30.3733 63.252 31.28C64.0787 32.1867 65.1187 32.68 66.372 32.76ZM79.3133 16.56H86.2333V38.56H79.3133V16.56ZM86.2333 14.24H79.3133V8.88H86.2333V14.24ZM87.4695 27.48C87.4695 23.8 88.5629 20.9333 90.7495 18.88C92.9629 16.8 95.9495 15.76 99.7095 15.76C101.47 15.76 103.123 16.12 104.67 16.84C106.243 17.5333 107.67 18.64 108.95 20.16L104.83 24.88C103.896 23.8933 103.043 23.2 102.27 22.8C101.523 22.3733 100.63 22.16 99.5895 22.16C98.9229 22.1867 98.2695 22.3333 97.6295 22.6C97.0162 22.84 96.4695 23.2 95.9895 23.68C95.5095 24.1333 95.1229 24.6933 94.8295 25.36C94.5362 26 94.3895 26.7067 94.3895 27.48C94.3895 29.1067 94.9229 30.4133 95.9895 31.4C97.0562 32.36 98.2829 32.84 99.6695 32.84C100.79 32.84 101.75 32.6 102.55 32.12C103.376 31.64 104.19 30.9733 104.99 30.12L109.07 34.8C107.87 36.3733 106.456 37.5067 104.83 38.2C103.203 38.8933 101.496 39.24 99.7095 39.24C96.0295 39.2667 93.0695 38.2933 90.8295 36.32C88.5895 34.3467 87.4695 31.4 87.4695 27.48ZM119.622 29.32C119.622 30.1733 119.689 30.8133 119.822 31.24C119.956 31.6667 120.249 31.96 120.702 32.12C120.996 32.2267 121.302 32.2667 121.622 32.24C121.969 32.2133 122.462 32.08 123.102 31.84L124.262 37.96C123.222 38.44 121.956 38.7467 120.462 38.88C118.969 39.0133 117.636 38.84 116.462 38.36C115.076 37.8 114.102 36.8933 113.542 35.64C112.982 34.3867 112.702 32.7067 112.702 30.6V22.8H109.102V16.56H112.702V8.88H119.622V16.56H124.102V22.8H119.622V29.32ZM144.838 16.56V38.56H137.838V37.28C137.331 37.7067 136.665 38.0933 135.838 38.44C135.011 38.7867 134.118 39 133.158 39.08H132.638C129.945 39.08 127.985 38.2933 126.758 36.72C125.531 35.1467 124.918 33.04 124.918 30.4V16.56H131.918V27.4C131.918 29.4267 132.185 30.76 132.718 31.4C133.251 32.04 133.918 32.3467 134.718 32.32C135.411 32.32 135.998 32.2133 136.478 32C136.958 31.7867 137.411 31.44 137.838 30.96V16.56H144.838ZM159.802 38.92C158.735 39.24 157.549 39.3867 156.242 39.36C154.962 39.3333 153.575 39.2 152.082 38.96C151.042 38.7733 149.949 38.4267 148.802 37.92C147.682 37.4133 146.602 36.8 145.562 36.08L148.362 30.64C149.642 31.3333 150.895 31.92 152.122 32.4C153.349 32.8533 154.549 33.16 155.722 33.32C156.069 33.4 156.349 33.3733 156.562 33.24C156.802 33.08 156.949 32.88 157.002 32.64C157.055 32.4 157.015 32.16 156.882 31.92C156.749 31.6533 156.522 31.44 156.202 31.28C155.749 31.0933 155.269 30.9067 154.762 30.72C154.282 30.5333 153.762 30.3333 153.202 30.12C152.642 29.9067 152.042 29.6667 151.402 29.4C150.762 29.1067 150.109 28.7467 149.442 28.32C148.109 27.52 147.162 26.3733 146.602 24.88C146.069 23.3867 146.149 21.84 146.842 20.24C147.322 18.9333 148.189 17.88 149.442 17.08C150.722 16.2533 152.482 15.8 154.722 15.72C156.482 15.6667 158.135 15.9067 159.682 16.44C161.255 16.9733 162.802 17.8133 164.322 18.96L160.722 23.96C159.602 23.2933 158.589 22.8133 157.682 22.52C156.802 22.2 155.949 22 155.122 21.92C154.882 21.8933 154.669 21.96 154.482 22.12C154.322 22.28 154.215 22.4667 154.162 22.68C154.109 22.8933 154.109 23.12 154.162 23.36C154.242 23.6 154.402 23.7733 154.642 23.88C155.042 24.12 155.482 24.3333 155.962 24.52C156.469 24.7067 156.989 24.8933 157.522 25.08C158.055 25.2933 158.602 25.5067 159.162 25.72C159.749 25.9333 160.322 26.1867 160.882 26.48C162.349 27.2533 163.415 28.2267 164.082 29.4C164.775 30.5733 165.015 31.92 164.802 33.44C164.615 34.96 164.069 36.16 163.162 37.04C162.282 37.8933 161.162 38.52 159.802 38.92Z" fill="black"/>
<path opacity="0.7" d="M20.3737 8.06802C20.3737 5.82021 21.8785 3.84309 24.0495 3.2606C39.5178 -0.889542 46.2419 -1.61669 46.2996 4.26381V26.4508C46.2996 28.6677 44.8349 30.6228 42.7091 31.2519C28.144 35.5621 20.1758 37.7531 20.3737 30.1897V8.06802Z" fill="#FFB800" fill-opacity="0.8"/>
<path opacity="0.7" d="M9.63291 21.4691C9.63291 19.2212 11.1369 17.2429 13.3091 16.6649C25.9235 13.3079 31.4185 12.7868 31.4664 17.6649V35.7594C31.4664 37.9764 30.0042 39.9316 27.878 40.5598C15.9709 44.0777 9.46883 45.7694 9.63291 39.4983V21.4691Z" fill="#FF7043" fill-opacity="0.8"/>
<path opacity="0.7" d="M0.0022737 34.2751C0.0022737 32.0272 1.50416 30.0456 3.67926 29.4784C12.488 27.1817 16.3427 26.9331 16.3774 30.4708V43.107C16.3774 45.324 14.9166 47.2818 12.7894 47.9062C4.42998 50.3599 -0.116608 51.3894 0.0022737 46.8459V34.2751Z" fill="#FF557E" fill-opacity="0.8"/>
</svg>
