<svg width="150" height="49" viewBox="0 0 150 49" fill="none" xmlns="http://www.w3.org/2000/svg">
<path d="M0 40.5676H74.8496V49H0V40.5676Z" fill="#5F2D9A"/>
<rect x="74.8501" y="40.5676" width="74.8496" height="8.43239" fill="#FFB800"/>
<path d="M25.0251 9.4C26.9251 9.4 28.6224 9.61533 30.1171 10.046C31.6371 10.4513 32.9164 11.0593 33.9551 11.87C34.9937 12.6553 35.7917 13.6307 36.3491 14.796C36.9064 15.936 37.1851 17.2407 37.1851 18.71C37.1851 20.1793 36.9064 21.4967 36.3491 22.662C35.7917 23.802 34.9937 24.7773 33.9551 25.588C32.9164 26.3733 31.6371 26.9813 30.1171 27.412C28.6224 27.8173 26.9251 28.02 25.0251 28.02H16.8551V36H11.3451V9.4H25.0251ZM16.8551 12.25V25.17H25.0251C27.0264 25.17 28.5717 24.6507 29.6611 23.612C30.7757 22.548 31.3331 20.914 31.3331 18.71C31.3331 16.506 30.7757 14.8847 29.6611 13.846C28.5717 12.782 27.0264 12.25 25.0251 12.25H16.8551ZM46.8765 36H41.5565V16.62H46.8765V36ZM47.0665 11.49C47.0665 12.25 46.8005 12.9213 46.2685 13.504C45.7619 14.0613 45.0779 14.34 44.2165 14.34C43.3552 14.34 42.6585 14.0613 42.1265 13.504C41.6199 12.9213 41.3665 12.25 41.3665 11.49C41.3665 10.73 41.6199 10.0713 42.1265 9.514C42.6585 8.93133 43.3552 8.64 44.2165 8.64C45.0525 8.64 45.7365 8.93133 46.2685 9.514C46.8005 10.0713 47.0665 10.73 47.0665 11.49ZM63.028 15.48C63.8387 15.48 64.6494 15.556 65.46 15.708C66.2707 15.8347 67.0434 16.0247 67.778 16.278C68.538 16.506 69.2347 16.7973 69.868 17.152C70.5267 17.5067 71.0967 17.8993 71.578 18.33L70.058 20.61C69.0194 19.8247 67.9554 19.2167 66.866 18.786C65.802 18.3553 64.6494 18.14 63.408 18.14C62.496 18.14 61.66 18.292 60.9 18.596C60.14 18.8747 59.4814 19.3433 58.924 20.002C58.3667 20.6353 57.9234 21.4587 57.594 22.472C57.29 23.4853 57.138 24.7013 57.138 26.12C57.138 27.5387 57.29 28.7547 57.594 29.768C57.9234 30.7813 58.3794 31.6173 58.962 32.276C59.5447 32.9093 60.2414 33.378 61.052 33.682C61.888 33.9607 62.8 34.1 63.788 34.1C65.0294 34.1 66.182 33.8847 67.246 33.454C68.3354 33.0233 69.3994 32.4153 70.438 31.63L71.958 33.91C71.4767 34.3407 70.9067 34.7333 70.248 35.088C69.6147 35.4427 68.918 35.7467 68.158 36C67.4234 36.228 66.6507 36.4053 65.84 36.532C65.0294 36.684 64.2187 36.76 63.408 36.76C61.6094 36.76 59.9627 36.5193 58.468 36.038C56.9987 35.582 55.7447 34.9107 54.706 34.024C53.6674 33.112 52.8567 31.9973 52.274 30.68C51.7167 29.3627 51.438 27.8427 51.438 26.12C51.438 24.4227 51.7167 22.9153 52.274 21.598C52.8567 20.2553 53.6547 19.1407 54.668 18.254C55.6814 17.342 56.8974 16.658 58.316 16.202C59.7347 15.7207 61.3054 15.48 63.028 15.48ZM76.7347 18.9H73.1247V16.24H76.7347V10.16H82.0547V16.24H87.9447V18.9H82.0547V28.78C82.0547 29.7427 82.1561 30.566 82.3587 31.25C82.5867 31.9087 82.8781 32.4533 83.2327 32.884C83.6127 33.2893 84.0434 33.5933 84.5247 33.796C85.0061 33.9987 85.5127 34.1 86.0447 34.1C86.8047 34.1 87.5394 33.986 88.2487 33.758C88.9581 33.5047 89.5534 33.2387 90.0347 32.96L91.1747 35.43C90.4147 35.81 89.5407 36.1267 88.5527 36.38C87.5901 36.6333 86.6274 36.76 85.6647 36.76C82.8021 36.76 80.5981 36.0507 79.0527 34.632C77.5074 33.2133 76.7347 31.2627 76.7347 28.78V18.9ZM93.0599 16.24H98.3799V28.21C98.3799 30.034 98.8359 31.3513 99.7479 32.162C100.66 32.9473 101.977 33.34 103.7 33.34H108.64V16.24H113.96V36H103.7C100.077 36 97.3919 35.354 95.6439 34.062C93.9212 32.7447 93.0599 30.794 93.0599 28.21V16.24ZM123.856 20.42C123.856 21.0027 124.11 21.5347 124.616 22.016C125.148 22.4973 126.035 22.9153 127.276 23.27L133.166 24.98C134.99 25.512 136.396 26.234 137.384 27.146C138.372 28.058 138.866 29.236 138.866 30.68C138.866 31.592 138.676 32.428 138.296 33.188C137.916 33.9227 137.296 34.556 136.434 35.088C135.573 35.62 134.458 36.0253 133.09 36.304C131.722 36.608 130.038 36.76 128.036 36.76C126.998 36.76 125.972 36.684 124.958 36.532C123.97 36.38 123.02 36.1773 122.108 35.924C121.222 35.6453 120.411 35.3413 119.676 35.012C118.942 34.6573 118.308 34.29 117.776 33.91L119.296 31.63C120.36 32.2887 121.602 32.8713 123.02 33.378C124.464 33.8593 126.136 34.1 128.036 34.1C129.936 34.1 131.266 33.8467 132.026 33.34C132.786 32.8333 133.166 32.2 133.166 31.44C133.166 30.8573 132.9 30.338 132.368 29.882C131.836 29.4007 130.899 28.97 129.556 28.59L123.666 26.88C122.045 26.3987 120.715 25.7147 119.676 24.828C118.663 23.916 118.156 22.7 118.156 21.18C118.156 20.3693 118.334 19.622 118.688 18.938C119.068 18.2287 119.651 17.6207 120.436 17.114C121.222 16.6073 122.222 16.2147 123.438 15.936C124.654 15.632 126.124 15.48 127.846 15.48C129.949 15.48 131.849 15.7713 133.546 16.354C135.269 16.9113 136.662 17.57 137.726 18.33L136.206 20.61C135.168 19.9513 133.99 19.3813 132.672 18.9C131.355 18.3933 129.746 18.14 127.846 18.14C126.504 18.14 125.503 18.3553 124.844 18.786C124.186 19.2167 123.856 19.7613 123.856 20.42Z" fill="black"/>
</svg>
