<svg width="354" height="100" viewBox="0 0 354 100" fill="none" xmlns="http://www.w3.org/2000/svg">
<path d="M157.564 77.76C155.271 77.76 153.111 77.36 151.084 76.56C149.057 75.76 147.404 74.64 146.124 73.2V87.12H132.364V33.12H146.124V37.04C147.244 35.76 148.817 34.6933 150.844 33.84C152.924 32.9867 155.297 32.5067 157.964 32.4C160.844 32.3467 163.511 32.8267 165.964 33.84C168.471 34.8 170.657 36.24 172.524 38.16C174.337 40.1333 175.751 42.5867 176.764 45.52C177.831 48.4 178.391 51.7067 178.444 55.44C178.497 59.3333 177.991 62.6933 176.924 65.52C175.857 68.3467 174.391 70.6667 172.524 72.48C170.604 74.2933 168.364 75.6267 165.804 76.48C163.244 77.3333 160.497 77.76 157.564 77.76ZM155.244 65.52C156.417 65.6267 157.591 65.52 158.764 65.2C159.937 64.8267 160.977 64.24 161.884 63.44C162.844 62.64 163.591 61.5467 164.124 60.16C164.711 58.7733 165.004 57.0667 165.004 55.04C165.004 53.2267 164.711 51.68 164.124 50.4C163.591 49.0667 162.897 47.9733 162.044 47.12C161.191 46.2667 160.204 45.6533 159.084 45.28C158.017 44.8533 156.951 44.64 155.884 44.64C153.164 44.64 150.924 45.7067 149.164 47.84C147.457 49.9733 146.604 52.8 146.604 56.32C146.604 58.6667 147.404 60.7467 149.004 62.56C150.657 64.3733 152.737 65.36 155.244 65.52ZM181.127 33.12H194.967V77.12H181.127V33.12ZM194.967 28.48H181.127V17.76H194.967V28.48ZM197.439 54.96C197.439 47.6 199.626 41.8667 203.999 37.76C208.426 33.6 214.399 31.52 221.919 31.52C225.439 31.52 228.746 32.24 231.839 33.68C234.986 35.0667 237.839 37.28 240.399 40.32L232.159 49.76C230.292 47.7867 228.586 46.4 227.039 45.6C225.546 44.7467 223.759 44.32 221.679 44.32C220.346 44.3733 219.039 44.6667 217.759 45.2C216.532 45.68 215.439 46.4 214.479 47.36C213.519 48.2667 212.746 49.3867 212.159 50.72C211.572 52 211.279 53.4133 211.279 54.96C211.279 58.2133 212.346 60.8267 214.479 62.8C216.612 64.72 219.066 65.68 221.839 65.68C224.079 65.68 225.999 65.2 227.599 64.24C229.252 63.28 230.879 61.9467 232.479 60.24L240.639 69.6C238.239 72.7467 235.412 75.0133 232.159 76.4C228.906 77.7867 225.492 78.48 221.919 78.48C214.559 78.5333 208.639 76.5867 204.159 72.64C199.679 68.6933 197.439 62.8 197.439 54.96ZM261.745 58.64C261.745 60.3467 261.878 61.6267 262.145 62.48C262.411 63.3333 262.998 63.92 263.905 64.24C264.491 64.4533 265.105 64.5333 265.745 64.48C266.438 64.4267 267.425 64.16 268.705 63.68L271.025 75.92C268.945 76.88 266.411 77.4933 263.425 77.76C260.438 78.0267 257.771 77.68 255.425 76.72C252.651 75.6 250.705 73.7867 249.585 71.28C248.465 68.7733 247.905 65.4133 247.905 61.2V45.6H240.705V33.12H247.905V17.76H261.745V33.12H270.705V45.6H261.745V58.64ZM312.176 33.12V77.12H298.176V74.56C297.163 75.4133 295.829 76.1867 294.176 76.88C292.523 77.5733 290.736 78 288.816 78.16H287.776C282.389 78.16 278.469 76.5867 276.016 73.44C273.563 70.2933 272.336 66.08 272.336 60.8V33.12H286.336V54.8C286.336 58.8533 286.869 61.52 287.936 62.8C289.003 64.08 290.336 64.6933 291.936 64.64C293.323 64.64 294.496 64.4267 295.456 64C296.416 63.5733 297.323 62.88 298.176 61.92V33.12H312.176ZM342.104 77.84C339.971 78.48 337.597 78.7733 334.984 78.72C332.424 78.6667 329.651 78.4 326.664 77.92C324.584 77.5467 322.397 76.8533 320.104 75.84C317.864 74.8267 315.704 73.6 313.624 72.16L319.224 61.28C321.784 62.6667 324.291 63.84 326.744 64.8C329.197 65.7067 331.597 66.32 333.944 66.64C334.637 66.8 335.197 66.7467 335.624 66.48C336.104 66.16 336.397 65.76 336.504 65.28C336.611 64.8 336.531 64.32 336.264 63.84C335.997 63.3067 335.544 62.88 334.904 62.56C333.997 62.1867 333.037 61.8133 332.024 61.44C331.064 61.0667 330.024 60.6667 328.904 60.24C327.784 59.8133 326.584 59.3333 325.304 58.8C324.024 58.2133 322.717 57.4933 321.384 56.64C318.717 55.04 316.824 52.7467 315.704 49.76C314.637 46.7733 314.797 43.68 316.184 40.48C317.144 37.8667 318.877 35.76 321.384 34.16C323.944 32.5067 327.464 31.6 331.944 31.44C335.464 31.3333 338.771 31.8133 341.864 32.88C345.011 33.9467 348.104 35.6267 351.144 37.92L343.944 47.92C341.704 46.5867 339.677 45.6267 337.864 45.04C336.104 44.4 334.397 44 332.744 43.84C332.264 43.7867 331.837 43.92 331.464 44.24C331.144 44.56 330.931 44.9333 330.824 45.36C330.717 45.7867 330.717 46.24 330.824 46.72C330.984 47.2 331.304 47.5467 331.784 47.76C332.584 48.24 333.464 48.6667 334.424 49.04C335.437 49.4133 336.477 49.7867 337.544 50.16C338.611 50.5867 339.704 51.0133 340.824 51.44C341.997 51.8667 343.144 52.3733 344.264 52.96C347.197 54.5067 349.331 56.4533 350.664 58.8C352.051 61.1467 352.531 63.84 352.104 66.88C351.731 69.92 350.637 72.32 348.824 74.08C347.064 75.7867 344.824 77.04 342.104 77.84Z" fill="white"/>
<rect width="100" height="100" rx="10" fill="white"/>
<path opacity="0.7" d="M46.5236 27.7735C46.5236 25.5257 48.0333 23.549 50.2027 22.9606C72.9008 16.8046 82.7373 15.553 82.8199 23.9693V56.5267C82.8199 58.7436 81.3531 60.6983 79.2274 61.3279C57.9258 67.6372 46.2401 71.1001 46.5236 60.2656V27.7735Z" fill="#FFB800" fill-opacity="0.8"/>
<path opacity="0.7" d="M31.4857 46.5351C31.4857 44.2873 32.9881 42.3118 35.1582 41.7261C53.8652 36.6768 61.9837 35.7145 62.0525 42.7309V69.5588C62.0525 71.7758 60.5924 73.7289 58.4666 74.3584C40.8832 79.5655 31.2494 82.3265 31.4857 73.2978V46.5351Z" fill="#FF7043" fill-opacity="0.8"/>
<path opacity="0.7" d="M18.0032 64.4634C18.0032 62.2156 19.5085 60.2374 21.6803 59.6579C35.0552 56.0895 40.8778 55.5138 40.9283 60.6592V79.8454C40.9283 82.0624 39.4645 84.0178 37.3385 84.6463C24.7229 88.3757 17.8301 90.2002 18.0032 83.5844V64.4634Z" fill="#FF557E" fill-opacity="0.8"/>
</svg>
